<svg width="375" height="58" viewBox="0 0 375 58" fill="none" xmlns="http://www.w3.org/2000/svg">
<g clip-path="url(#clip0_4101_10)">
<path d="M0.00131029 29.1595C0.0506103 24.4231 0.00131029 11.5472 0.00131029 4.8382C0.00131029 -0.589597 2.51791 0.150703 6.12001 0.150703H22.0551C27.4335 0.150703 31.0824 3.6048 31.0331 10.9056C30.9838 18.7484 26.3456 21.1663 18.0092 21.1663C13.1244 21.1663 10.8075 21.6106 10.8075 28.2688C10.8075 34.0422 11.3993 34.7307 5.67571 34.7307C1.28401 34.7308 -0.0479897 35.471 0.00131029 29.1556V29.1595ZM21.9539 11.1028C21.9046 8.1419 19.0921 7.4016 15.5911 7.4016C12.0384 7.4514 9.91681 8.1916 9.86751 11.1028C9.71961 14.0628 12.3348 14.3098 15.6898 14.3098C18.848 14.3098 21.8085 14.0627 21.9564 11.1028H21.9539Z" fill="#F5F1E0"/>
<path d="M61.8776 12.2378C65.0846 20.8706 64.986 20.2778 68.7829 31.7232C69.9182 34.7339 67.8947 34.7339 64.5397 34.7339C59.0626 34.7339 60.4933 35.0786 57.5353 29.2564C56.943 27.6285 54.1305 27.48 51.0734 27.48C48.0163 27.48 45.2018 27.6284 44.612 29.2564C41.6516 35.0787 43.0822 34.7339 37.6076 34.7339C34.2526 34.7339 32.2292 34.7339 33.3644 31.7232C37.1637 20.2779 37.0651 20.8707 40.2697 12.2378C45.547 -1.27979 43.3268 0.299315 51.0734 0.299315C58.82 0.299315 56.6003 -1.27979 61.8776 12.2378ZM54.6242 18.5024C53.2917 13.1235 53.0944 11.7934 51.0715 11.7934C49.0486 11.7934 48.8508 13.1254 47.5188 18.5024C47.1238 20.0805 49.3938 20.1792 51.0715 20.1792C52.7492 20.1792 55.0188 20.0806 54.6242 18.5024Z" fill="#F5F1E0"/>
<path d="M97.54 0.249512C100.057 0.249512 100.748 1.33541 100.797 3.65481C100.945 10.0669 101.636 15.8394 100.748 22.353C99.81 29.3081 95.1718 35.0815 87.6738 35.0815C79.5346 35.0815 75.3403 28.9135 74.3535 23.7348C73.8603 21.1684 75.9819 20.8725 77.9556 20.8237C80.7681 20.7251 81.607 21.021 82.5445 22.3032C83.6798 23.8335 83.8277 25.3628 86.7882 25.6587C92.1173 26.2017 92.5611 18.7036 92.1173 12.6841C91.9694 10.8589 91.2291 9.37841 89.4034 9.37841L78.8956 9.13131C76.2804 9.13131 75.6393 8.19381 75.9352 4.14791C76.1818 0.743612 76.1818 0.249512 78.8463 0.249512H97.54Z" fill="#F5F1E0"/>
<path d="M118.769 5.43112C118.72 20.0834 119.657 24.5707 124.987 24.6206C130.71 24.5708 131.349 20.0317 131.204 5.48002C131.155 0.398017 132.141 0.348216 136.138 0.348216C139.543 0.348216 140.727 0.398017 140.727 5.48002C140.727 14.0142 141.516 22.4517 138.26 28.0747C135.053 33.6011 130.466 35.1772 124.989 35.1772C119.512 35.1772 114.926 33.5493 111.718 28.0249C108.461 22.3999 109.3 13.9644 109.3 5.43112C109.3 0.348116 110.435 0.299316 113.84 0.299316C117.837 0.299316 118.774 0.348116 118.774 5.43112H118.769Z" fill="#F5F1E0"/>
<path d="M149.512 29.1595C149.562 24.4232 149.512 11.5472 149.512 4.83819C149.512 -0.589508 152.029 0.150692 155.631 0.150692H171.566C176.945 0.150692 180.594 3.60479 180.544 10.9056C180.495 15.1488 178.472 17.4652 175.61 19.2415C174.376 19.9817 174.376 21.2649 174.821 22.1038C175.709 23.8304 181.233 31.0823 181.627 32.5618C182.022 34.0921 179.9 34.7337 177.137 34.7337C173.486 34.7337 172.4 34.5853 171.315 33.0062L166.775 25.9525C165.245 23.8802 163.568 21.6107 161.298 22.2523C160.114 22.597 160.311 25.9525 160.311 28.2718C160.311 34.0452 160.903 34.7337 155.18 34.7337C150.788 34.7337 149.456 35.473 149.505 29.1575L149.512 29.1595ZM171.319 11.1028C171.27 8.29029 168.556 7.55009 165.152 7.55009C161.648 7.64869 159.576 8.29029 159.526 11.1028C159.378 13.9153 161.944 14.1624 165.201 14.1624C168.26 14.1624 171.171 13.9153 171.319 11.1028Z" fill="#F5F1E0"/>
<path d="M215.772 12.2378C218.979 20.8706 218.881 20.2778 222.677 31.7232C223.813 34.7339 221.789 34.7339 218.434 34.7339C212.957 34.7339 214.388 35.0786 211.43 29.2564C210.838 27.6285 208.025 27.48 204.968 27.48C201.912 27.48 199.096 27.6284 198.507 29.2564C195.546 35.0787 196.977 34.7339 191.502 34.7339C188.147 34.7339 186.124 34.7339 187.259 31.7232C191.058 20.2779 190.96 20.8707 194.164 12.2378C199.442 -1.27979 197.221 0.299315 204.968 0.299315C212.716 0.299315 210.495 -1.27979 215.772 12.2378ZM208.519 18.5024C207.186 13.1235 206.989 11.7934 204.966 11.7934C202.943 11.7934 202.745 13.1254 201.413 18.5024C201.018 20.0805 203.288 20.1792 204.966 20.1792C206.644 20.1792 208.913 20.0806 208.519 18.5024Z" fill="#F5F1E0"/>
<path d="M229.408 29.2583L230.543 4.93701C230.74 0.299312 231.382 0.249512 237.597 0.249512C242.63 0.249512 243.959 0.348111 245.539 4.73971C247.907 11.3989 249.387 14.6557 250.127 14.6557C250.966 14.6557 253.137 8.78361 254.618 4.73971C256.246 0.348111 257.973 0.249512 262.609 0.249512C268.826 0.249512 269.416 0.545412 269.613 4.93701L270.748 29.2583C270.995 34.5874 270.156 34.8345 266.159 34.8345C262.705 34.8843 261.62 34.6861 261.422 29.5552C261.373 28.0747 261.373 24.2261 261.176 21.2671C261.077 19.7378 261.176 18.4546 260.139 18.5044C258.856 18.5532 257.031 24.228 254.761 29.7026C253.182 33.4526 252.442 34.2915 250.172 34.2915C247.853 34.2915 246.866 33.0083 245.287 29.4067C242.721 23.5346 241.34 18.5532 240.057 18.5044C239.02 18.4546 238.922 19.689 238.823 21.2183C238.675 24.1792 238.774 28.0747 238.725 29.5552C238.527 34.6861 237.441 34.8843 233.988 34.8345C229.991 34.8345 229.152 34.5874 229.399 29.2583H229.408Z" fill="#F5F1E0"/>
<path d="M305.987 12.2378C309.194 20.8706 309.095 20.2778 312.892 31.7232C314.028 34.7339 312.004 34.7339 308.649 34.7339C303.172 34.7339 304.603 35.0786 301.645 29.2564C301.052 27.6285 298.24 27.48 295.183 27.48C292.127 27.48 289.311 27.6284 288.721 29.2564C285.761 35.0787 287.192 34.7339 281.717 34.7339C278.362 34.7339 276.339 34.7339 277.474 31.7232C281.273 20.2779 281.174 20.8707 284.379 12.2378C289.656 -1.27979 287.436 0.299315 295.183 0.299315C302.93 0.299315 300.71 -1.27979 305.987 12.2378ZM298.734 18.5024C297.401 13.1235 297.204 11.7934 295.181 11.7934C293.158 11.7934 292.96 13.1254 291.628 18.5024C291.233 20.0805 293.503 20.1792 295.181 20.1792C296.859 20.1792 299.128 20.0806 298.734 18.5024Z" fill="#F5F1E0"/>
<path d="M97.7442 55.6287C97.7322 55.6865 97.7153 55.7672 97.6912 55.8708C97.6117 56.1466 97.5539 56.3344 97.5178 56.432C97.4841 56.5295 97.4142 56.6247 97.3107 56.7162C97.2071 56.8089 97.0891 56.8607 96.9591 56.8715C96.8266 56.8835 96.6099 56.8956 96.3112 56.9064C95.8271 56.9293 95.4682 56.8281 95.2322 56.6041C94.9962 56.3801 94.8083 56.0489 94.671 55.6118C93.9003 53.16 93.4716 51.8341 93.3849 51.6318C93.2982 51.4307 93.1489 51.3067 92.9345 51.2609C92.7226 51.2151 92.5058 51.3067 92.289 51.5379C92.0457 51.8715 91.8675 52.2339 91.7519 52.6253C91.6387 52.9468 91.4268 53.4972 91.1233 54.2739C90.8174 55.0506 90.6007 55.6515 90.4754 56.0778C90.302 56.6185 89.9407 56.8895 89.3868 56.8895C88.9268 56.8775 88.4668 56.8377 88.0067 56.7679C87.8694 56.745 87.7538 56.6884 87.6623 56.5957C87.5684 56.5042 87.5082 56.4139 87.4793 56.3284C87.4504 56.2417 87.4191 56.1237 87.3854 55.9744C86.752 53.4082 85.9524 50.7372 84.9866 47.9638C84.8349 47.5375 84.5699 46.8704 84.1918 45.9612C83.9389 45.3278 84.1388 44.9713 84.7963 44.8906C85.095 44.8677 85.3936 44.8617 85.6923 44.8737C86.2462 44.8737 86.5979 45.1724 86.7472 45.7709C87.4722 48.7984 88.0574 50.8407 88.5078 51.9005C88.5536 52.0378 88.633 52.1474 88.7486 52.2281C88.8642 52.3088 88.9967 52.3485 89.146 52.3485C89.4326 52.3485 89.6638 52.1883 89.8372 51.8656C90.343 50.8637 90.9355 49.1958 91.6147 46.8584C91.7881 46.2611 92.1951 45.9733 92.8406 45.9962C93.2211 46.007 93.4885 46.0709 93.6426 46.1853C93.7992 46.3009 93.9172 46.5369 93.9966 46.8934C94.2615 48.1253 94.7745 49.621 95.5332 51.3816C95.603 51.543 95.6825 51.6935 95.7765 51.8308C96.0872 52.2571 96.3907 52.2511 96.6893 51.8139C96.9205 51.4574 97.0867 51.0661 97.1903 50.6398C97.2601 50.3749 97.4504 49.6355 97.7611 48.4216C98.0718 47.2077 98.2669 46.4563 98.3488 46.1685C98.3584 46.1336 98.3705 46.0878 98.3825 46.03C98.4162 45.9156 98.4427 45.8289 98.4596 45.7711C98.4765 45.7145 98.503 45.6362 98.5367 45.5387C98.5728 45.4412 98.609 45.3689 98.6499 45.3231C98.6908 45.2761 98.7438 45.2219 98.8137 45.1581C98.8835 45.0955 98.9606 45.0521 99.0473 45.0292C99.134 45.0063 99.2328 44.9798 99.3484 44.9509C99.464 44.9232 99.5989 44.9112 99.7554 44.9172C99.9095 44.9232 100.08 44.9365 100.264 44.9593C100.62 45.04 100.781 45.2881 100.748 45.7023C100.714 45.9901 100.644 46.2779 100.541 46.5657C100.184 47.4749 99.8181 48.5274 99.4447 49.7244C99.069 50.9214 98.7992 51.8162 98.633 52.4086C98.4668 53.0023 98.1681 54.0753 97.7442 55.6287Z" fill="#F5F1E0"/>
<path d="M103.667 55.2661C103.655 55.024 103.647 53.5344 103.647 50.7948C103.647 49.6435 103.601 48.0503 103.51 46.0128C103.498 45.5636 103.536 45.2902 103.623 45.1926C103.707 45.0951 103.97 45.0398 104.408 45.0289C105.352 45.006 106.593 44.9939 108.127 44.9939C109.664 44.9939 110.904 44.988 111.848 44.9771C112.366 44.9771 112.718 45.0783 112.901 45.2794C113.086 45.4805 113.182 45.8225 113.194 46.3066C113.206 46.6402 113.103 46.8822 112.884 47.0316C112.665 47.181 112.378 47.2266 112.022 47.1688C111.769 47.1351 111.533 47.1087 111.313 47.0918C111.094 47.0749 110.851 47.0653 110.579 47.0653H109.974C109.842 47.0653 109.599 47.0713 109.242 47.0834C108.886 47.0942 108.65 47.1063 108.534 47.1171C107.983 47.1291 107.388 47.1749 106.757 47.2556C106.492 47.2905 106.284 47.3652 106.135 47.4808C105.983 47.5952 105.904 47.7915 105.892 48.0673C105.858 48.6429 105.873 49.003 105.935 49.1463C105.998 49.2908 106.203 49.4317 106.549 49.569C106.79 49.6617 107.046 49.7158 107.318 49.7327C107.587 49.7508 107.91 49.7472 108.284 49.7243C108.657 49.7014 108.919 49.6907 109.069 49.6907C109.507 49.6907 109.774 49.7364 109.871 49.8279C109.969 49.9206 110.008 50.1736 109.984 50.5879C109.95 51.1515 109.864 51.4947 109.726 51.6151C109.587 51.7355 109.242 51.7741 108.688 51.7271C108.009 51.6693 107.332 51.6934 106.653 51.7969C106.284 51.8535 106.082 52.0618 106.048 52.4183C106.048 52.4869 106.036 52.5988 106.012 52.7542C105.991 52.9095 105.974 53.0337 105.962 53.1252C105.938 53.5166 106.02 53.8393 106.203 54.0922C106.388 54.3463 106.675 54.5016 107.067 54.5582C107.4 54.616 107.78 54.6509 108.206 54.6618C108.63 54.6738 109.013 54.6738 109.353 54.6618C109.692 54.651 110.075 54.651 110.502 54.6618C110.858 54.6967 111.27 54.7027 111.737 54.6799C112.202 54.657 112.609 54.5763 112.953 54.4378C113.194 54.3342 113.389 54.3427 113.541 54.4631C113.69 54.5847 113.753 54.7714 113.729 55.0243C113.719 55.4157 113.649 55.7902 113.522 56.1466C113.466 56.3778 113.339 56.5584 113.144 56.6909C112.946 56.8234 112.734 56.8836 112.506 56.8715C111.757 56.8715 110.579 56.8775 108.975 56.8896C107.368 56.9004 106.145 56.9065 105.307 56.9065C105.018 56.9065 104.796 56.9005 104.642 56.8896C104.485 56.8776 104.338 56.8523 104.201 56.8113C104.061 56.7716 103.965 56.7198 103.907 56.656C103.85 56.5934 103.797 56.4922 103.751 56.3537C103.705 56.2164 103.678 56.0695 103.674 55.9142C103.669 55.7589 103.667 55.5419 103.667 55.2661Z" fill="#F5F1E0"/>
<path d="M116.578 53.3154C116.578 53.0167 116.552 52.3002 116.501 51.1658C116.448 50.0326 116.422 49.3908 116.422 49.2414V46.4789C116.422 45.9502 116.523 45.5528 116.725 45.2879C116.925 45.023 117.315 44.8965 117.891 44.9074C118.616 44.9194 119.143 44.9255 119.478 44.9255C119.813 44.9255 120.345 44.9231 121.075 44.9171C121.807 44.9111 122.339 44.9026 122.672 44.8906C122.915 44.8906 123.127 44.9026 123.31 44.9255C125.186 45.0748 126.101 46.0936 126.056 47.9806C126.032 48.7634 125.861 49.3908 125.538 49.8628C125.422 50.0591 125.377 50.2144 125.401 50.3288C125.422 50.4444 125.521 50.5648 125.694 50.6913C126.776 51.4849 127.207 52.5675 126.988 53.9367C126.884 54.6388 126.545 55.2469 125.969 55.7587C125.393 56.2705 124.734 56.5667 123.984 56.6474C121.993 56.8545 119.996 56.9352 117.995 56.8895C117.429 56.8775 117.062 56.7883 116.889 56.621C116.716 56.4548 116.624 56.0947 116.612 55.542C116.59 54.9098 116.578 54.168 116.578 53.3154ZM121.342 54.817C122.759 54.6906 123.512 54.6219 123.604 54.6099C124.295 54.5413 124.722 54.1679 124.883 53.4876C124.987 53.0276 124.893 52.6109 124.606 52.2364C124.317 51.8631 123.91 51.6523 123.38 51.6066C122.356 51.5139 121.015 51.5488 119.358 51.7102C118.828 51.756 118.58 52.0378 118.616 52.5556C118.674 53.2468 118.72 53.7755 118.753 54.144C118.787 54.5017 118.985 54.7136 119.341 54.7834C119.673 54.8412 120.341 54.8519 121.342 54.817ZM121.015 49.8977C121.198 49.8857 121.366 49.8832 121.516 49.8881C121.665 49.8941 121.836 49.8917 122.024 49.8797C122.214 49.8689 122.385 49.846 122.535 49.8111C123.019 49.6955 123.392 49.451 123.657 49.0777C123.922 48.7032 124.018 48.2685 123.951 47.7735C123.869 47.2677 123.592 46.9907 123.122 46.945C123.074 46.945 122.91 46.9305 122.629 46.9016C122.347 46.8739 122.156 46.8558 122.06 46.8498C121.961 46.845 121.807 46.8353 121.593 46.8245C121.381 46.8125 121.191 46.81 121.025 46.8161C120.856 46.8221 120.692 46.8306 120.531 46.8414C120.244 46.8763 120.025 46.9016 119.876 46.9197C119.726 46.9366 119.57 46.9655 119.409 47.0052C119.247 47.0461 119.136 47.0714 119.074 47.0835C119.009 47.0943 118.936 47.1353 118.857 47.2039C118.777 47.2737 118.734 47.3279 118.727 47.3677C118.722 47.4086 118.708 47.4917 118.683 47.6182C118.662 47.7458 118.655 47.8494 118.667 47.9289C118.679 48.0096 118.686 48.1481 118.693 48.3432C118.698 48.5395 118.703 48.7177 118.703 48.8791C118.712 49.3271 118.956 49.6269 119.428 49.7763C119.587 49.8233 119.753 49.8522 119.919 49.863C120.085 49.875 120.29 49.8799 120.531 49.8799C120.774 49.8799 120.935 49.8856 121.015 49.8977Z" fill="#F5F1E0"/>
<path d="M171.242 50.7156C171.805 50.7734 172.371 50.7794 172.935 50.7325H174.816C175.254 50.7325 175.466 50.9119 175.454 51.2684C175.454 51.372 175.457 51.6188 175.464 52.0102C175.469 52.4016 175.466 52.7267 175.454 52.9856C175.445 53.2445 175.408 53.495 175.351 53.737C175.237 54.2897 175.009 54.7895 174.669 55.2387C174.329 55.6879 173.913 56.0383 173.419 56.2924C171.933 57.0968 170.408 57.3618 168.843 57.086C167.716 56.8909 166.745 56.4249 165.933 55.6879C165.122 54.9509 164.568 54.0453 164.269 52.9687C163.968 51.8921 163.963 50.7734 164.25 49.6113C164.515 48.6094 164.987 47.7375 165.666 46.9957C166.345 46.2527 167.116 45.712 167.981 45.3724C168.843 45.0328 169.787 44.9184 170.811 45.0268C171.834 45.1364 172.795 45.5025 173.693 46.1239C173.982 46.319 174.24 46.5093 174.471 46.6935C174.746 46.9006 174.9 47.0933 174.929 47.2715C174.958 47.4497 174.886 47.6894 174.712 47.988C174.69 48.0229 174.654 48.0747 174.609 48.1433C174.389 48.4432 174.221 48.6587 174.1 48.7912C173.98 48.9237 173.847 48.9923 173.703 48.9983C173.558 49.0043 173.421 48.9465 173.289 48.8249C173.156 48.7045 172.98 48.5058 172.761 48.23C172.612 48.0458 172.431 47.8904 172.217 47.764C172.005 47.6376 171.815 47.5472 171.648 47.4955C171.48 47.4437 171.253 47.3895 170.967 47.3317C168.987 46.8596 167.621 47.5798 166.875 49.4897C166.449 50.5723 166.398 51.5995 166.718 52.5713C167.041 53.5443 167.674 54.2669 168.619 54.7377C169.596 55.2326 170.649 55.2676 171.778 54.8413C172.041 54.7498 172.267 54.5884 172.45 54.3584C172.715 54.0019 172.778 53.6852 172.641 53.4083C172.571 53.2481 172.45 53.153 172.277 53.1241C172.106 53.0952 171.945 53.1036 171.795 53.1494C171.771 53.1494 171.709 53.159 171.605 53.1759C171.501 53.1928 171.429 53.2012 171.388 53.2012C171.35 53.2012 171.285 53.2048 171.198 53.2108C171.114 53.2156 171.044 53.2108 170.991 53.1927C170.94 53.1758 170.882 53.1554 170.82 53.1325C170.755 53.1096 170.702 53.0723 170.656 53.0205C170.61 52.9687 170.569 52.9085 170.533 52.8387C170.292 52.3907 170.304 51.7742 170.569 50.9914C170.637 50.7843 170.864 50.6927 171.242 50.7156Z" fill="#F5F1E0"/>
<path d="M178.185 52.3392C178.185 52.2007 178.177 51.7889 178.165 51.1049C178.156 50.4197 178.148 50.0078 178.148 49.8706V46.0544C178.16 45.6173 178.221 45.3439 178.329 45.2343C178.44 45.1259 178.719 45.0705 179.167 45.0705C179.858 45.0597 180.863 45.0512 182.18 45.0452C183.498 45.0392 184.237 45.0356 184.398 45.0356C184.846 45.0476 185.289 45.0934 185.728 45.1741C187.154 45.4162 188.023 46.1869 188.334 47.4874C188.623 48.7302 188.218 49.8525 187.127 50.8544C186.93 51.0158 186.723 51.1591 186.506 51.2855C186.193 51.4926 186.019 51.6805 185.978 51.8467C185.937 52.0141 186.01 52.2646 186.193 52.5981C186.424 53.0003 186.761 53.5904 187.204 54.3671C187.648 55.1438 187.973 55.717 188.18 56.0855C188.387 56.4877 188.459 56.7382 188.394 56.8357C188.332 56.9332 188.069 57.0055 187.609 57.0513C186.93 57.132 186.397 57.0754 186.012 56.8791C185.627 56.684 185.343 56.2577 185.157 55.6014C184.916 54.7151 184.427 53.7481 183.69 52.7016C183.413 52.2982 182.994 52.0369 182.431 51.9152C181.867 51.7948 181.378 51.855 180.964 52.097C180.757 52.2234 180.634 52.4366 180.6 52.7352C180.576 53.0122 180.557 53.3289 180.54 53.6853C180.523 54.0417 180.514 54.3127 180.514 54.497C180.514 54.6813 180.516 55.0172 180.523 55.5062C180.528 55.9963 180.53 56.2805 180.53 56.3612C180.542 56.637 180.492 56.8296 180.376 56.9392C180.261 57.0488 180.066 57.097 179.789 57.0861H179.064C178.936 57.0861 178.796 57.0632 178.64 57.0175C178.486 56.9717 178.392 56.9308 178.355 56.8959C178.322 56.8622 178.281 56.767 178.235 56.6117C178.189 56.4564 178.168 56.3155 178.175 56.189C178.18 56.0614 178.184 55.8374 178.184 55.5146L178.185 52.3392ZM185.244 47.0899C185.037 46.9863 184.798 46.9177 184.529 46.8828C184.256 46.8491 184.013 46.8407 183.794 46.8575C183.575 46.8743 183.329 46.872 183.052 46.8491H182.294C182.05 46.8599 181.882 46.866 181.783 46.866C181.684 46.866 181.557 46.878 181.395 46.9009C181.234 46.9238 181.13 46.9503 181.084 46.978C181.039 47.0069 180.969 47.0539 180.877 47.1165C180.783 47.1803 180.73 47.2514 180.714 47.3321C180.694 47.4128 180.665 47.5248 180.627 47.6693C180.586 47.8126 180.562 47.968 180.557 48.1353C180.552 48.3015 180.55 48.5062 180.55 48.7483C180.538 49.3239 180.82 49.6455 181.395 49.7153C182.315 49.8297 183.536 49.7779 185.054 49.56C185.608 49.4793 185.918 49.0819 185.986 48.3678C186.044 47.7813 185.798 47.3548 185.244 47.0899Z" fill="#F5F1E0"/>
<path d="M202.371 55.8084C202.578 56.3033 202.619 56.6369 202.499 56.8103C202.378 56.9825 202.048 57.0572 201.507 57.0343C200.919 57.0114 200.543 56.9307 200.377 56.7922C200.208 56.6549 200.052 56.3033 199.902 55.7397C199.809 55.3712 199.741 55.0978 199.693 54.9196C199.647 54.7414 199.573 54.5595 199.469 54.3753C199.365 54.1911 199.276 54.0706 199.202 54.0128C199.127 53.955 198.992 53.8984 198.797 53.8406C198.6 53.7828 198.412 53.7539 198.226 53.7539H197.398C197.215 53.7539 196.892 53.7479 196.432 53.737H194.792C194.377 53.7478 194.072 53.8261 193.877 53.9694C193.681 54.1139 193.52 54.3812 193.392 54.7726C193.231 55.2097 193.106 55.6529 193.012 56.1021C192.92 56.6548 192.605 56.9475 192.063 56.9824C191.947 56.9944 191.827 57.0113 191.702 57.0342C191.54 57.0691 191.379 57.086 191.218 57.086C190.953 57.0968 190.734 57.0053 190.563 56.8102C190.469 56.6946 190.42 56.5657 190.416 56.4212C190.408 56.2779 190.425 56.1623 190.466 56.0756C190.507 55.9901 190.567 55.8721 190.647 55.7216C190.705 55.6301 190.758 55.5386 190.803 55.4458C191.321 54.2259 192.046 52.3678 192.978 49.8702C193.52 48.3962 193.939 47.2799 194.238 46.52C194.296 46.3707 194.37 46.1696 194.464 45.9167C194.568 45.594 194.671 45.3748 194.775 45.2604C194.879 45.1448 195.047 45.0617 195.283 45.0099C195.519 44.9581 195.931 44.9316 196.519 44.9316H196.76C197.037 44.9316 197.236 44.9352 197.364 44.9412C197.489 44.9472 197.629 44.9665 197.778 45.0014C197.928 45.0351 198.026 45.0737 198.072 45.1134C198.118 45.1543 198.185 45.2374 198.279 45.3639C198.371 45.4903 198.441 45.6108 198.486 45.7264C198.532 45.842 198.6 46.0263 198.693 46.2791C198.901 46.8427 199.216 47.6941 199.642 48.8333C200.806 51.9535 201.714 54.2779 202.371 55.8084ZM198.383 51.5093C198.441 51.36 198.433 51.2167 198.366 51.0782C198.296 50.906 198.197 50.6411 198.072 50.2846C197.865 49.709 197.704 49.2767 197.588 48.9888C197.46 48.6781 197.318 48.4336 197.157 48.2554C196.996 48.0772 196.781 47.9881 196.519 47.9881H196.499C196.064 47.9881 195.712 48.3108 195.447 48.9551C195.322 49.2538 195.153 49.7029 194.946 50.3014C194.809 50.6699 194.705 50.9396 194.635 51.1131C194.577 51.2395 194.577 51.372 194.635 51.5093C194.727 51.6249 194.854 51.6887 195.016 51.6996C195.488 51.7803 195.972 51.826 196.466 51.8381C196.892 51.8152 197.393 51.7695 197.969 51.6996C198.176 51.6767 198.313 51.6129 198.383 51.5093Z" fill="#F5F1E0"/>
<path d="M204.771 55.3073V50.9058C204.771 49.9388 204.723 48.3444 204.631 46.1238C204.619 45.6975 204.658 45.4362 204.744 45.3374C204.831 45.2399 205.086 45.1857 205.513 45.1736C208.839 45.07 211.278 45.0122 212.832 45.0014C213.383 44.9894 213.788 45.0965 214.041 45.3205C214.294 45.5445 214.426 45.8937 214.438 46.3646C214.448 46.7102 214.369 46.9691 214.195 47.1413C214.024 47.3147 213.764 47.3894 213.42 47.3665C213.234 47.3545 212.964 47.3171 212.608 47.2545C212.251 47.1907 211.996 47.1533 211.847 47.1413C211.469 47.0955 211.062 47.0727 210.631 47.0727C210.199 47.0727 209.718 47.0811 209.19 47.0992C208.66 47.1161 208.251 47.1245 207.964 47.1245C207.538 47.1245 207.239 47.3774 207.066 47.8844C207.042 47.9651 207.032 48.0518 207.032 48.1433C206.996 48.466 206.974 48.7129 206.962 48.8851C206.95 49.0585 206.962 49.2247 206.996 49.3861C207.032 49.5475 207.078 49.6595 207.136 49.7233C207.191 49.7859 207.3 49.8413 207.454 49.8871C207.61 49.9329 207.774 49.9594 207.945 49.9642C208.118 49.9702 208.367 49.9738 208.689 49.9738C209.241 49.9618 209.788 49.8991 210.329 49.7835C210.604 49.7257 210.804 49.7426 210.924 49.8353C211.045 49.9268 211.112 50.1111 211.122 50.388C211.122 50.6409 211.105 50.8938 211.071 51.1467C211.025 51.4815 210.934 51.7031 210.794 51.8114C210.657 51.921 210.421 51.9535 210.086 51.9065C209.684 51.8487 208.983 51.8439 207.981 51.8896C207.728 51.9125 207.543 51.9847 207.427 52.1052C207.314 52.2256 207.256 52.4243 207.256 52.7013C207.22 54.0476 207.239 55.2326 207.307 56.2574C207.331 56.603 207.3 56.821 207.213 56.9137C207.126 57.0052 206.909 57.051 206.565 57.051C206.266 57.051 206.03 57.0486 205.857 57.0426C205.684 57.0366 205.52 57.0113 205.366 56.9655C205.209 56.9197 205.103 56.8643 205.045 56.8005C204.988 56.7379 204.935 56.6319 204.882 56.4814C204.831 56.3321 204.802 56.1743 204.795 56.0069C204.79 55.8407 204.78 55.6072 204.771 55.3073Z" fill="#F5F1E0"/>
<path d="M216.443 55.7565V54.6004C216.58 52.7122 216.621 49.8232 216.563 45.9335C216.563 45.5192 216.604 45.2748 216.683 45.2001C216.765 45.1254 217.018 45.0869 217.445 45.0869C217.835 45.0869 218.129 45.0929 218.324 45.105C218.726 45.105 218.991 45.1736 219.118 45.3121C219.244 45.4506 219.285 45.7155 219.239 46.1057C219.181 46.6127 219.09 48.0566 218.962 50.4397C218.849 52.3039 218.853 54.174 218.981 56.0502C219.003 56.4524 218.967 56.7089 218.868 56.8185C218.769 56.9281 218.519 57.0052 218.117 57.0509C218.037 57.0509 217.934 57.0569 217.806 57.069C217.209 57.0919 216.828 57.0256 216.667 56.8703C216.505 56.715 216.431 56.3441 216.443 55.7565Z" fill="#F5F1E0"/>
<path d="M222.258 51.0266H222.277C222.277 47.9775 222.27 46.1639 222.258 45.5883C222.258 45.4161 222.294 45.286 222.361 45.2005C222.431 45.1138 222.552 45.0644 222.725 45.0536C222.759 45.0536 222.814 45.0476 222.889 45.0355C222.964 45.0247 223.012 45.0186 223.036 45.0186C223.669 44.9608 224.059 45.0017 224.209 45.139C224.358 45.2775 224.423 45.658 224.399 46.2794C224.387 46.7394 224.399 47.4872 224.435 48.5229C224.457 49.2021 224.751 49.3574 225.314 48.9889C225.43 48.9094 225.538 48.8311 225.642 48.7565C225.745 48.6819 225.859 48.5987 225.979 48.506C226.099 48.4145 226.201 48.3338 226.283 48.2639C226.362 48.1953 226.468 48.1037 226.6 47.9881C226.733 47.8737 226.832 47.7894 226.894 47.7376C226.957 47.6858 227.063 47.5907 227.215 47.4534C227.364 47.3149 227.458 47.2282 227.499 47.1933C227.54 47.1596 227.643 47.0644 227.809 46.9091C227.976 46.7538 228.072 46.6646 228.094 46.6418C228.279 46.4925 228.445 46.3251 228.595 46.1408C229.158 45.635 229.57 45.3376 229.83 45.2521C230.088 45.1654 230.678 45.1281 231.598 45.1389C232.104 45.1967 232.227 45.4388 231.962 45.8651C231.904 45.9687 231.836 46.0686 231.762 46.1662C231.687 46.2649 231.593 46.3709 231.478 46.4865C231.362 46.6009 231.282 46.6816 231.237 46.7273C231.191 46.7743 231.09 46.8718 230.933 47.0211C230.779 47.1704 230.69 47.2511 230.666 47.2632C229.722 48.1375 229.204 48.6156 229.112 48.6962C228.939 48.8335 228.838 48.984 228.811 49.1442C228.782 49.3056 228.807 49.4898 228.888 49.6969C228.992 49.9968 229.115 50.3074 229.259 50.629C229.404 50.9517 229.529 51.2275 229.64 51.4575C229.748 51.6887 229.905 51.991 230.105 52.3643C230.307 52.7388 230.454 53.0062 230.545 53.1675C230.637 53.3288 230.808 53.6215 231.054 54.0478C231.302 54.4741 231.461 54.7438 231.531 54.8595C232.036 55.7567 232.318 56.2576 232.376 56.3612C232.605 56.7755 232.496 56.9946 232.048 57.0175C231.991 57.0283 231.437 57.0404 230.389 57.0512C230.285 57.0512 230.191 57.0199 230.105 56.9561C230.018 56.8935 229.965 56.8393 229.941 56.7923C229.917 56.7465 229.878 56.661 229.821 56.5334C229.647 56.1769 229.322 55.5038 228.845 54.5139C228.368 53.524 228.002 52.7593 227.749 52.2174C227.506 51.7453 227.299 51.4346 227.128 51.2853C226.954 51.136 226.759 51.095 226.54 51.1649C226.321 51.2335 225.993 51.4298 225.555 51.7514C224.991 52.1897 224.642 52.6269 224.503 53.064C224.481 53.1555 224.462 53.4036 224.452 53.8058C224.44 54.2092 224.437 54.7463 224.442 55.4207C224.447 56.0939 224.452 56.4648 224.452 56.5334C224.452 56.7405 224.411 56.8935 224.332 56.991C224.25 57.0885 224.112 57.1439 223.915 57.1548C223.859 57.1548 223.749 57.1644 223.587 57.1813C223.426 57.1982 223.301 57.2066 223.209 57.2066C222.817 57.1958 222.561 57.1235 222.441 56.991C222.318 56.8585 222.258 56.5912 222.258 56.189V51.0266Z" fill="#F5F1E0"/>
<path d="M269.808 55.3498V50.9483C269.808 49.9813 269.762 48.3869 269.67 46.1663C269.658 45.74 269.694 45.4787 269.781 45.3799C269.868 45.2824 270.123 45.2282 270.549 45.2161C273.875 45.1125 276.315 45.0547 277.869 45.0439C278.423 45.0319 278.825 45.139 279.078 45.363C279.331 45.587 279.463 45.9362 279.475 46.4071C279.487 46.7527 279.405 47.0116 279.234 47.1838C279.061 47.3572 278.803 47.4319 278.457 47.409C278.274 47.397 278.001 47.3596 277.645 47.297C277.288 47.2332 277.036 47.1958 276.886 47.1838C276.506 47.138 276.101 47.1152 275.67 47.1152C275.236 47.1152 274.757 47.1236 274.227 47.1417C273.697 47.1586 273.29 47.167 273.001 47.167C272.575 47.167 272.276 47.4199 272.103 47.9269C272.081 48.0076 272.069 48.0943 272.069 48.1858C272.035 48.5085 272.011 48.7554 271.999 48.9276C271.99 49.101 271.999 49.2672 272.035 49.4286C272.069 49.59 272.115 49.702 272.173 49.7658C272.231 49.8284 272.337 49.8838 272.493 49.9296C272.647 49.9754 272.811 50.0019 272.984 50.0067C273.158 50.0127 273.403 50.0163 273.726 50.0163C274.28 50.0043 274.824 49.9416 275.366 49.826C275.643 49.7682 275.841 49.7851 275.961 49.8778C276.084 49.9693 276.149 50.1536 276.161 50.4305C276.161 50.6834 276.144 50.9363 276.108 51.1892C276.062 51.524 275.971 51.7456 275.834 51.8539C275.694 51.9635 275.458 51.996 275.125 51.949C274.721 51.8912 274.02 51.8864 273.018 51.9321C272.765 51.955 272.582 52.0272 272.467 52.1477C272.351 52.2682 272.293 52.4668 272.293 52.7438C272.259 54.0901 272.276 55.2751 272.346 56.2999C272.368 56.6455 272.337 56.8635 272.25 56.9562C272.163 57.0477 271.949 57.0935 271.604 57.0935C271.303 57.0935 271.067 57.0911 270.896 57.0851C270.723 57.0791 270.559 57.0538 270.403 57.008C270.248 56.9622 270.142 56.9068 270.085 56.843C270.027 56.7804 269.971 56.6744 269.921 56.5239C269.868 56.3746 269.839 56.2168 269.834 56.0494C269.827 55.8832 269.82 55.6497 269.808 55.3498Z" fill="#F5F1E0"/>
<path d="M281.478 55.799V54.6429C281.615 52.7547 281.656 49.8657 281.598 45.976C281.598 45.5617 281.639 45.3173 281.719 45.2426C281.8 45.1679 282.053 45.1294 282.48 45.1294C282.87 45.1294 283.164 45.1354 283.359 45.1475C283.761 45.1475 284.026 45.2161 284.154 45.3546C284.279 45.4931 284.32 45.758 284.274 46.1482C284.216 46.6552 284.125 48.0991 283.997 50.4822C283.884 52.3464 283.889 54.2165 284.016 56.0927C284.038 56.4949 284.002 56.7514 283.903 56.861C283.804 56.9706 283.554 57.0477 283.152 57.0934C283.072 57.0934 282.969 57.0994 282.841 57.1115C282.244 57.1344 281.863 57.0681 281.702 56.9128C281.54 56.7575 281.466 56.3866 281.478 55.799Z" fill="#F5F1E0"/>
<path d="M297.049 52.1043C297.107 52.1513 297.143 52.2283 297.16 52.3379C297.179 52.4475 297.179 52.5848 297.16 52.7522C297.143 52.9184 297.124 53.0834 297.099 53.2435C297.078 53.4049 297.049 53.5807 297.013 53.771C296.979 53.9601 296.955 54.101 296.945 54.1937L296.618 56.1096C296.582 56.2252 296.553 56.3288 296.531 56.4203C296.37 56.8586 296.042 57.0766 295.546 57.0766C294.833 57.0886 294.127 57.0935 293.431 57.0935C292.735 57.0935 291.957 57.0995 291.1 57.1116C290.243 57.1224 289.539 57.1285 288.985 57.1285H288.728C288.094 57.0936 287.702 56.9984 287.552 56.8431C287.403 56.6878 287.328 56.306 287.328 55.6955V51.0339C287.316 50.0103 287.266 48.393 287.174 46.1832C287.162 45.7581 287.196 45.5016 287.278 45.4149C287.357 45.3282 287.617 45.274 288.053 45.2511C288.306 45.2282 288.489 45.2138 288.598 45.2077C288.706 45.2016 288.836 45.2017 288.985 45.2077C289.135 45.2137 289.231 45.2197 289.272 45.2246C289.311 45.2306 289.368 45.2571 289.443 45.3029C289.518 45.3487 289.556 45.386 289.556 45.4149C289.556 45.4438 289.568 45.51 289.59 45.6136C289.614 45.7172 289.619 45.8063 289.607 45.8809C289.597 45.9556 289.588 46.0796 289.583 46.2518C289.576 46.4252 289.573 46.5806 289.573 46.7178C289.573 48.9396 289.578 51.1663 289.59 53.3989C289.59 54.2515 289.987 54.7115 290.782 54.7802C291.599 54.8729 292.422 54.9127 293.251 54.9018C294.183 54.8898 294.759 54.7055 294.978 54.3491C295.069 54.1998 295.216 53.8975 295.416 53.4423C295.618 52.9883 295.789 52.6692 295.927 52.4849C296.088 52.2549 296.283 52.108 296.514 52.0441C296.743 51.9815 296.921 52.0007 297.049 52.1043Z" fill="#F5F1E0"/>
<path d="M313.174 51.0685H313.194C313.194 54.049 313.199 55.753 313.211 56.1793C313.211 56.4322 313.158 56.6225 313.054 56.7489C312.95 56.8753 312.772 56.944 312.519 56.956C312.242 56.9789 312.035 56.9933 311.898 56.9981C311.761 57.0041 311.609 57.0017 311.45 56.9897C311.288 56.9789 311.175 56.9704 311.113 56.9644C311.05 56.9584 310.978 56.9186 310.896 56.8428C310.816 56.7681 310.766 56.7079 310.749 56.6622C310.732 56.6165 310.713 56.5189 310.689 56.3684C310.667 56.2191 310.657 56.0902 310.662 55.9806C310.669 55.871 310.672 55.6892 310.672 55.4363V55.3677C310.672 53.8829 310.667 52.3981 310.655 50.9132C310.677 50.5218 310.626 50.1425 310.498 49.774C310.395 49.5319 310.27 49.3995 310.12 49.3766C309.947 49.3658 309.81 49.4802 309.706 49.7222C309.383 50.4472 309.135 51.0336 308.962 51.4828C308.824 51.8284 308.586 52.439 308.246 53.3132C307.907 54.1874 307.64 54.8667 307.444 55.3496C307.18 56.018 306.741 56.2997 306.132 56.1962C305.891 56.1613 305.703 56.0698 305.571 55.9192C305.438 55.7699 305.32 55.5688 305.217 55.3159C305.067 54.9474 304.776 54.2056 304.345 53.0881C303.914 51.9718 303.577 51.1095 303.336 50.499C303.208 50.1883 303.063 49.8836 302.902 49.5838C302.856 49.4802 302.784 49.4032 302.688 49.3514C302.589 49.2996 302.483 49.2852 302.367 49.308C302.139 49.3766 302.011 49.532 301.989 49.774C301.965 49.9691 301.96 50.1594 301.97 50.3436C301.97 50.6772 301.977 51.4997 301.989 52.8123C301.999 54.1249 302.006 55.1317 302.006 55.8337C302.006 56.3636 301.941 56.6911 301.816 56.8176C301.688 56.944 301.361 57.0018 300.831 56.9898H300.641C300.089 56.979 299.759 56.9127 299.648 56.7911C299.54 56.6707 299.484 56.3287 299.484 55.7639C299.496 52.5534 299.501 49.3417 299.501 46.1312C299.501 45.7049 299.569 45.4207 299.701 45.2762C299.834 45.1329 300.106 45.0438 300.52 45.0089C300.958 44.9981 301.271 44.9944 301.462 45.0005C301.652 45.0066 301.963 45.0294 302.394 45.0691C302.825 45.11 303.138 45.1353 303.336 45.1474C303.473 45.1474 303.596 45.1932 303.706 45.2859C303.815 45.3774 303.889 45.4605 303.93 45.5352C303.971 45.6111 304.024 45.7339 304.094 45.9073C304.222 46.1831 304.451 46.7563 304.785 47.6245C305.118 48.494 305.4 49.1587 305.631 49.6187C305.655 49.6645 305.701 49.768 305.768 49.9294C305.838 50.0908 305.896 50.2052 305.942 50.275C305.987 50.3436 306.06 50.4123 306.158 50.4821C306.255 50.5507 306.373 50.5857 306.512 50.5857C306.662 50.5737 306.772 50.5195 306.847 50.4207C306.922 50.3232 306.989 50.1714 307.047 49.9643C307.105 49.7572 307.143 49.6295 307.167 49.5838C307.317 49.2382 307.555 48.6168 307.883 47.7196C308.213 46.8212 308.49 46.1372 308.721 45.6652C308.882 45.3316 309.094 45.1582 309.359 45.1474C309.566 45.1354 309.872 45.1101 310.274 45.0691C310.676 45.0294 310.982 45.0065 311.189 45.0005C311.397 44.9945 311.702 44.9981 312.105 45.0089C312.543 45.0438 312.83 45.1329 312.967 45.2762C313.107 45.4207 313.174 45.7109 313.174 46.1481L313.174 51.0685Z" fill="#F5F1E0"/>
<path d="M0.395749 55.1681V50.7666C0.395749 49.7996 0.347549 48.2052 0.256049 45.9846C0.244049 45.5583 0.282549 45.297 0.369249 45.1982C0.455949 45.1007 0.711249 45.0465 1.13755 45.0344C4.46365 44.9308 6.90345 44.873 8.45695 44.8622C9.00845 44.8502 9.41315 44.9573 9.66605 45.1813C9.91895 45.4053 10.0514 45.7545 10.0634 46.2254C10.073 46.571 9.99365 46.8299 9.82015 47.0021C9.64915 47.1755 9.38905 47.2502 9.04465 47.2273C8.85915 47.2153 8.58945 47.1779 8.23295 47.1153C7.87645 47.0515 7.62115 47.0141 7.47185 47.0021C7.09375 46.9563 6.68665 46.9335 6.25555 46.9335C5.82445 46.9335 5.34275 46.9419 4.81525 46.96C4.28535 46.9769 3.87595 46.9853 3.58935 46.9853C3.16305 46.9853 2.86435 47.2382 2.69095 47.7452C2.66685 47.8259 2.65725 47.9126 2.65725 48.0041C2.62115 48.3268 2.59945 48.5737 2.58745 48.7459C2.57545 48.9193 2.58745 49.0855 2.62115 49.2469C2.65725 49.4083 2.70305 49.5203 2.76085 49.5841C2.81625 49.6467 2.92465 49.7021 3.07875 49.7479C3.23535 49.7937 3.39905 49.8202 3.57005 49.825C3.74345 49.831 3.99155 49.8346 4.31425 49.8346C4.86575 49.8226 5.41255 49.7599 5.95445 49.6443C6.22905 49.5865 6.42895 49.6034 6.54935 49.6961C6.66975 49.7876 6.73725 49.9719 6.74685 50.2488C6.74685 50.5017 6.72995 50.7546 6.69625 51.0075C6.65045 51.3423 6.55895 51.5639 6.41925 51.6722C6.28195 51.7818 6.04595 51.8143 5.71115 51.7673C5.30895 51.7095 4.60805 51.7047 3.60615 51.7504C3.35325 51.7733 3.16785 51.8455 3.05225 51.966C2.93905 52.0864 2.88125 52.2851 2.88125 52.5621C2.84515 53.9084 2.86435 55.0934 2.93185 56.1182C2.95595 56.4638 2.92465 56.6818 2.83795 56.7745C2.75125 56.866 2.53445 56.9118 2.19005 56.9118C1.89135 56.9118 1.65535 56.9094 1.48195 56.9034C1.30855 56.8974 1.14475 56.8721 0.990649 56.8263C0.834049 56.7805 0.728149 56.7251 0.670349 56.6613C0.612549 56.5987 0.559549 56.4927 0.506549 56.3422C0.455949 56.1929 0.427049 56.0351 0.419849 55.8677C0.415049 55.7015 0.405349 55.468 0.395749 55.1681Z" fill="#F5F1E0"/>
<path d="M15.777 44.7068C17.1811 44.4419 18.46 44.5454 19.6185 45.0175C20.7746 45.4896 21.685 46.2832 22.3545 47.3995C23.0216 48.5158 23.354 49.8453 23.354 51.3879C23.2625 53.4243 22.5327 54.9789 21.1623 56.0495C20.4253 56.6251 19.5149 56.996 18.4263 57.1622C17.3377 57.3296 16.2659 57.2658 15.2062 56.9731C14.1465 56.6793 13.2891 56.1988 12.6339 55.5304C12.0366 54.9211 11.6175 54.219 11.3815 53.4242C11.1455 52.6306 11.0275 51.7335 11.0275 50.7315C11.0179 49.2816 11.4827 47.975 12.4268 46.8129C13.3709 45.6508 14.486 44.9476 15.777 44.7068ZM13.2385 50.9737C13.2385 52.2056 13.6022 53.1895 14.3271 53.9253C15.0521 54.6623 16.013 55.0308 17.21 55.0308C18.3709 55.0308 19.3319 54.6503 20.0929 53.8916C20.8516 53.1317 21.2417 52.1647 21.2658 50.9906C21.2899 49.7707 20.9093 48.7929 20.1266 48.0559C19.3439 47.3189 18.3708 46.9456 17.2099 46.9336C16.0129 46.9228 15.0471 47.2876 14.3173 48.0295C13.5851 48.7725 13.2265 49.7538 13.2385 50.9737Z" fill="#F5F1E0"/>
<path d="M28.174 54.3577C28.174 53.1137 28.1451 51.0196 28.0873 48.0728C28.0753 47.7055 28.0102 47.4659 27.8898 47.3563C27.767 47.2479 27.5189 47.1925 27.1384 47.1925C26.8855 47.1925 26.5242 47.2009 26.0594 47.219C25.5922 47.2359 25.2911 47.2443 25.1538 47.2443C24.6456 47.2563 24.3879 46.9974 24.3759 46.4676C24.3639 46.2255 24.3566 46.0425 24.3494 45.9149C24.3446 45.7885 24.3494 45.656 24.3663 45.5187C24.3856 45.3802 24.3952 45.2791 24.4024 45.2164C24.4072 45.1526 24.4385 45.09 24.4963 45.0261C24.5541 44.9635 24.5999 44.9225 24.6336 44.9057C24.6697 44.8876 24.7444 44.8732 24.86 44.8623C24.9732 44.8503 25.0695 44.8442 25.1442 44.8442C25.2189 44.8442 25.3489 44.8502 25.532 44.8623C25.6813 44.8731 25.8017 44.8792 25.8957 44.8792C26.953 44.8912 27.6972 44.8961 28.1211 44.8961C28.5474 44.8961 29.2892 44.8829 30.3489 44.854C31.4086 44.8251 32.1504 44.8106 32.5767 44.8106C32.6225 44.8106 32.6803 44.8082 32.7477 44.8022C32.8175 44.7962 32.8705 44.7926 32.9043 44.7926C33.6052 44.7818 34.0387 44.854 34.2001 45.0094C34.3591 45.1647 34.4458 45.5874 34.4578 46.2775C34.4578 46.6689 34.3639 46.9507 34.1736 47.1241C33.9833 47.2963 33.6871 47.3601 33.2849 47.3144C32.6515 47.2337 32.018 47.1988 31.3846 47.2096C30.9944 47.2216 30.7584 47.4179 30.6765 47.7973C30.5609 48.2802 30.5224 48.7703 30.5561 49.2641C30.5802 49.8289 30.6019 50.8417 30.6259 52.3036C30.6476 53.7643 30.6933 54.8987 30.7632 55.7044C30.809 56.2451 30.7463 56.5967 30.5729 56.7569C30.4019 56.9183 30.0382 56.9821 29.4867 56.9472C29.347 56.9472 29.1977 56.9364 29.0363 56.9123C28.622 56.8437 28.3667 56.7461 28.268 56.6197C28.1717 56.4933 28.1331 56.2163 28.1572 55.79C28.1668 55.3757 28.174 54.8984 28.174 54.3577Z" fill="#F5F1E0"/>
<path d="M40.2418 44.7068C41.6459 44.4419 42.9248 44.5454 44.0833 45.0175C45.2394 45.4896 46.1498 46.2832 46.8193 47.3995C47.4864 48.5158 47.8188 49.8453 47.8188 51.3879C47.7273 53.4243 46.9975 54.9789 45.6271 56.0495C44.8901 56.6251 43.9797 56.996 42.8911 57.1622C41.8025 57.3296 40.7307 57.2658 39.671 56.9731C38.6113 56.6793 37.7539 56.1988 37.0987 55.5304C36.5014 54.9211 36.0823 54.219 35.8463 53.4242C35.6103 52.6306 35.4923 51.7335 35.4923 50.7315C35.4827 49.2816 35.9475 47.975 36.8916 46.8129C37.8357 45.6508 38.9508 44.9476 40.2418 44.7068ZM37.7033 50.9737C37.7033 52.2056 38.067 53.1895 38.7919 53.9253C39.5169 54.6623 40.4778 55.0308 41.6748 55.0308C42.8357 55.0308 43.7967 54.6503 44.5577 53.8916C45.3164 53.1317 45.7065 52.1647 45.7306 50.9906C45.7547 49.7707 45.3741 48.7929 44.5914 48.0559C43.8087 47.3189 42.8356 46.9456 41.6747 46.9336C40.4777 46.9228 39.5119 47.2876 38.7821 48.0295C38.0499 48.7725 37.6913 49.7538 37.7033 50.9737Z" fill="#F5F1E0"/>
<path d="M370.04 48.751L371.685 56.5901C371.749 56.8861 372.005 57.0929 372.307 57.0929C372.307 57.0929 372.813 57.0991 372.937 56.6323C373.061 56.1651 374.565 48.8503 374.565 48.8503C374.578 48.7916 374.567 48.7337 374.564 48.675C374.572 48.615 374.599 48.5617 374.599 48.4997V1.34278C374.599 0.605183 373.999 0.00488281 373.26 0.00488281H371.354C370.616 0.00488281 370.016 0.605183 370.016 1.34278V48.4996C370.016 48.5703 370.045 48.6315 370.056 48.6997L370.04 48.751ZM371.094 48.6237L371.119 48.622V48.6237H371.094ZM372.756 54.3016L372.549 55.3939C372.526 55.5167 372.414 55.6213 372.306 55.6213C372.198 55.6213 372.086 55.5167 372.062 55.3939L371.849 54.2689C371.834 54.1895 371.851 54.1064 371.895 54.0432C371.938 53.9795 372.005 53.9431 372.074 53.9431H372.542C372.669 53.9431 372.77 54.063 372.77 54.211C372.77 54.2424 372.765 54.2731 372.756 54.3016ZM370.824 1.99778C370.824 1.71498 370.938 1.46028 371.122 1.27428C371.201 1.19408 371.299 1.13368 371.402 1.08328C371.54 1.01468 371.69 0.967483 371.855 0.967483H372.759C372.924 0.967483 373.073 1.01458 373.212 1.08328C373.316 1.13458 373.413 1.19578 373.493 1.27758C373.676 1.46278 373.79 1.71668 373.79 1.99778V47.8249C373.79 48.092 373.682 48.3301 373.515 48.5137C373.421 48.6162 373.311 48.7006 373.183 48.7593C373.053 48.818 372.911 48.8552 372.759 48.8552H371.855C371.702 48.8552 371.561 48.818 371.431 48.7593C371.304 48.7014 371.194 48.6179 371.1 48.5162C370.932 48.3335 370.823 48.0937 370.823 47.8249L370.824 1.99778Z" fill="#F5F1E0"/>
<path d="M329.047 22.8458H365.253C366.247 22.8458 367.054 22.0366 367.054 21.0434V1.8007C367.054 0.8075 366.247 0 365.253 0H329.047C328.054 0 327.246 0.8076 327.246 1.8007V21.0434C327.246 22.0366 328.054 22.8458 329.047 22.8458ZM328.523 2.5113C328.523 1.8208 329.083 1.2607 329.773 1.2607H364.526C365.217 1.2607 365.777 1.8208 365.777 2.5113V20.322C365.777 21.0125 365.217 21.5726 364.526 21.5726H329.773C329.083 21.5726 328.523 21.0125 328.523 20.322V2.5113Z" fill="#F5F1E0"/>
<path d="M330.583 20.7808H363.729C364.42 20.7808 364.98 20.2207 364.98 19.5293V9.37121C364.98 8.68071 364.42 8.12061 363.729 8.12061H330.583C329.892 8.12061 329.332 8.68071 329.332 9.37121V19.5293C329.332 20.2207 329.892 20.7808 330.583 20.7808ZM347.196 9.75671C349.781 9.75671 351.877 11.8325 351.877 14.3931C351.877 16.9537 349.781 19.0295 347.196 19.0295C344.611 19.0295 342.515 16.9537 342.515 14.3931C342.515 11.8325 344.61 9.75671 347.196 9.75671Z" fill="#F5F1E0"/>
<path d="M347.194 18.5156C349.456 18.5156 351.295 16.6915 351.295 14.451C351.295 12.2089 349.456 10.3848 347.194 10.3848C344.933 10.3848 343.094 12.2089 343.094 14.451C343.094 16.6914 344.933 18.5156 347.194 18.5156ZM347.194 11.4173C348.854 11.4173 350.199 12.7499 350.199 14.3934C350.199 16.0378 348.854 17.3703 347.194 17.3703C345.534 17.3703 344.189 16.0377 344.189 14.3934C344.189 12.7499 345.534 11.4173 347.194 11.4173Z" fill="#F5F1E0"/>
<path d="M349.307 50.1333H345.032C344.341 50.1333 343.781 50.6932 343.781 51.3839V53.9839C343.781 54.6746 344.341 55.2345 345.032 55.2345H349.307C349.998 55.2345 350.558 54.6746 350.558 53.9839V51.3839C350.558 50.6932 349.998 50.1333 349.307 50.1333Z" fill="#F5F1E0"/>
<path d="M371.856 1.43066H372.76C373.073 1.43066 373.327 1.68446 373.327 1.99706V47.8259C373.327 48.1385 373.073 48.3923 372.76 48.3923H371.856C371.543 48.3923 371.289 48.1381 371.289 47.825V1.99796C371.289 1.68486 371.543 1.43066 371.856 1.43066Z" fill="#F5F1E0"/>
<path d="M363.73 2.07324H330.583C329.892 2.07324 329.332 2.63315 329.332 3.32384V6.11024C329.332 6.80093 329.892 7.36084 330.583 7.36084H363.73C364.42 7.36084 364.98 6.80093 364.98 6.11024V3.32384C364.98 2.63315 364.42 2.07324 363.73 2.07324Z" fill="#F5F1E0"/>
<path d="M329.067 49.3886H341.941V55.2539C341.941 56.2554 342.755 57.0697 343.755 57.0697H350.584C351.585 57.0697 352.4 56.2554 352.4 55.2539V49.3886H365.273C366.266 49.3886 367.074 48.581 367.074 47.5879V27.8603C367.074 26.8671 366.266 26.0596 365.273 26.0596H329.067C328.074 26.0596 327.266 26.8672 327.266 27.8603V47.5879C327.266 48.5811 328.074 49.3886 329.067 49.3886ZM351.338 54.728C351.338 54.8459 351.302 54.9529 351.271 55.0616C351.141 55.5231 350.764 55.86 350.284 55.9394C350.218 55.9503 350.157 55.9787 350.087 55.9787H344.252C344.182 55.9787 344.122 55.9503 344.055 55.9394C343.576 55.86 343.199 55.5239 343.069 55.0633C343.038 54.9546 343.001 54.8468 343.001 54.7281V50.6401C343.001 50.5214 343.038 50.4144 343.069 50.3049C343.218 49.7807 343.68 49.3895 344.252 49.3895H350.087C350.66 49.3895 351.122 49.7816 351.271 50.3066C351.302 50.4153 351.338 50.5223 351.338 50.6402L351.338 54.728ZM328.544 28.9788C328.544 28.0893 329.269 27.3653 330.158 27.3653H364.278C365.168 27.3653 365.892 28.0893 365.892 28.9788V46.4944C365.892 47.3839 365.168 48.1079 364.278 48.1079H330.158C329.269 48.1079 328.544 47.3839 328.544 46.4944V28.9788Z" fill="#F5F1E0"/>
<path d="M330.54 47.3818C330.554 47.3818 330.565 47.3893 330.579 47.3893H363.863C363.876 47.3893 363.888 47.3818 363.901 47.3818C364.573 47.3601 365.113 46.8158 365.113 46.1387V29.3697C365.113 28.6783 364.553 28.1191 363.863 28.1191H330.579C329.888 28.1191 329.328 28.6784 329.328 29.3697V46.1387C329.328 46.8158 329.868 47.3601 330.54 47.3818Z" fill="#F5F1E0"/>
<path d="M371.094 48.6238H371.119V48.6221L371.094 48.6238Z" fill="#F5F1E0"/>
</g>
<defs>
<clipPath id="clip0_4101_10">
<rect width="374.6" height="57.2534" fill="white"/>
</clipPath>
</defs>
</svg>
